<svg width="140" height="140" viewBox="0 0 140 140" xmlns="http://www.w3.org/2000/svg">
  <!-- Głowa -->
  <path d="M30 50 Q20 80 40 110 Q70 130 100 110 Q120 80 110 50 Q90 20 50 30 Q35 35 30 50" fill="#7BAF00" stroke="#4E7D00" stroke-width="4"></path>
  
  <!-- Uszy -->
  <ellipse cx="20" cy="70" rx="10" ry="18" fill="#7BAF00" stroke="#4E7D00" stroke-width="3"></ellipse>
  <ellipse cx="120" cy="70" rx="10" ry="18" fill="#7BAF00" stroke="#4E7D00" stroke-width="3"></ellipse>
  
  <!-- Oczy -->
  <circle cx="55" cy="60" r="7" fill="white"></circle>
  <circle cx="85" cy="60" r="7" fill="white"></circle>
  <circle cx="55" cy="60" r="3" fill="black"></circle>
  <circle cx="85" cy="60" r="3" fill="black"></circle>
  
  <!-- Brwi grube -->
  <path d="M45 50 Q55 40 65 50" stroke="#2D2D2D" stroke-width="5" fill="none"></path>
  <path d="M75 50 Q85 40 95 50" stroke="#2D2D2D" stroke-width="5" fill="none"></path>
  
  <!-- Nos -->
  <path d="M65 70 Q70 75 75 70" stroke="#4E7D00" stroke-width="3" fill="none"></path>
  
  <!-- Usta z zębami -->
  <path d="M50 90 Q70 105 90 90" stroke="#222" stroke-width="3" fill="none"></path>
  <rect x="60" y="88" width="4" height="6" fill="white"></rect>
  <rect x="75" y="88" width="4" height="6" fill="white"></rect>
</svg>
